<?xml version="1.0" encoding="utf-8"?>
<!DOCTYPE svg PUBLIC "-//W3C//DTD SVG 1.0//EN" "http://www.w3.org/TR/2001/REC-SVG-20010904/DTD/svg10.dtd">
<svg version="1.0" xmlns="http://www.w3.org/2000/svg" width="651px" height="900px" viewBox="0 0 651 900" preserveAspectRatio="xMidYMid meet">
 <g fill="#3bbae8" fill-rule="evenodd">
  <path d="M0 564 L0 559.5C0 557 0 554.7 0 554.5 C0 554.2 0 547 0 538.5 L0 523L0 523 L0.3 523C0.5 523 0.9 517.7 1.3 511.2 C1.6 504.7 2.6 494.3 3.4 488 C4.3 481.6 5.9 471.3 7 465 C8.1 458.6 10.6 447.2 12.6 439.5 C14.5 431.8 17.6 420.3 19.6 414 C21.6 407.6 25.8 395.7 29 387.4 C32.3 379.2 38.9 364.3 43.8 354.4 C48.7 344.5 56.4 330.4 60.9 323 C65.4 315.5 72.7 304.3 77.2 298 C81.6 291.6 89.6 281.1 94.8 274.5 C100.1 267.9 111.8 255 120.9 245.9 C130 236.8 142.6 225 149 219.8 C155.3 214.6 164.1 207.6 168.5 204.3 C172.9 201 181.9 194.7 188.5 190.3 C195.1 185.9 205.5 179.3 211.7 175.6 C217.9 172 229.7 165.6 237.8 161.5 C246 157.4 258.5 151.6 265.6 148.7 C272.6 145.7 283.9 141.3 290.5 139 C297.1 136.7 308.6 133.1 316.1 130.9 C323.6 128.8 336.5 125.7 344.6 124.1 C352.8 122.4 365.3 120.3 372.5 119.3 C382 118 392.5 117.5 412 117.5 C428.9 117.5 441.9 117.9 448 118.8 C453.2 119.5 462.2 121 468 122.1 C473.7 123.2 482.4 125.2 487.3 126.6 C492.2 127.9 496.4 128.9 496.6 128.7 C496.8 128.5 493.1 122.7 488.3 115.9 C483.6 109 475.7 97.5 470.9 90.3 C466 83.1 460.2 74.1 457.9 70.3 C455.5 66.5 451.3 59.1 448.4 53.8 C445.5 48.5 440.8 39 438 32.7 C434.9 25.7 433 19.9 433 17.6 C433 15.5 433.8 12.2 434.9 10.2 C435.9 8.1 437.8 5.5 439.1 4.3 C440.4 3.2 442.2 1.7 443.2 1.1 L445 0L446 0 L446.5 0C446.7 0 447.2 0 447.5 0 L448 0L449 0 L454.2 2.3C457.1 3.6 463.2 6.5 467.8 8.9 C472.4 11.2 479.8 15.5 484.3 18.4 C488.8 21.3 496.7 26.9 502 31 C507.2 35 518.9 45.7 528 54.9 C537.2 64 549.2 77.2 554.8 84.3 C560.4 91.3 568.4 101.9 572.5 107.7 C576.6 113.5 584.2 124.8 589.3 132.8 C594.5 140.9 602.2 153.5 606.5 161 C610.7 168.4 619.5 184.6 626 197 C632.5 209.3 640.7 225.5 644.1 233 C647.5 240.4 650.5 246.6 650.7 246.7 L651 247L651 247 L651 250.5C651 252.4 651 254.2 651 254.5 L651 255L651 255 L648.6 261.3C647.3 264.8 645 270 643.4 273 C641.7 276.1 636.3 282.7 631 288 C624.9 294.1 619.6 298.5 616.5 300 C612.9 301.7 609.7 302.4 605.4 302.4 C599.9 302.4 598.8 302.1 591.3 297.3 C586.9 294.4 579.3 290.4 574.4 288.4 C569.6 286.4 560.9 283.7 555 282.4 C549.2 281.1 538.2 279.3 530.5 278.5 C522.8 277.6 503.1 275.8 486.7 274.5 C470.3 273.1 450.7 272 443.2 272 C435.6 272 424.3 272.4 418 273 C411.6 273.6 399.9 275.2 392 276.6 C384 278 375.3 279.4 372.7 279.7 C369.1 280.1 367.9 279.9 367.8 278.8 C367.8 278.1 367.8 276.6 367.9 275.5 C368 274.4 369.5 270.8 371.2 267.7 C372.9 264.5 375.8 260.5 377.7 258.9 C379.5 257.3 383.6 254.6 386.8 253 C390 251.4 399.1 247.3 407 244 C415 240.6 430 234.9 440.4 231.3 C450.9 227.8 465.7 223.1 473.4 221 C481.1 218.9 491.9 216.4 497.3 215.4 C502.7 214.5 506.7 213.3 506.2 212.8 C505.8 212.4 499.3 210 491.9 207.6 C484.5 205.1 470.4 201.1 460.5 198.6 C450.6 196.1 435.5 193 427 191.6 C418.4 190.2 405.8 188.5 399 187.9 C392.1 187.2 375.6 186.7 362.3 186.8 C349 186.8 333.7 187.3 328.3 187.9 C322.9 188.6 313.3 189.9 307 191 C300.6 192.1 290 194.2 283.4 195.9 C276.8 197.5 266.5 200.5 260.4 202.5 C254.4 204.5 245.6 207.7 241 209.6 C236.3 211.6 226.8 216 219.8 219.5 C212.9 222.9 204.1 227.7 200.3 230 C196.6 232.3 189.2 237.1 184.1 240.7 C178.9 244.3 170.6 250.6 165.6 254.8 C160.6 258.9 152.2 266.4 147.1 271.4 C141.9 276.4 133.8 285 129.1 290.5 C124.3 296 117.7 304.1 114.3 308.5 C111 312.9 105.1 321.2 101.2 327 C97.4 332.7 91 343.1 87.1 350.1 C83.1 357.1 77.3 368.6 74.1 375.6 C70.8 382.7 66.3 393.6 64 399.8 C61.8 406 58.1 417.2 55.9 424.6 C53.8 432.1 50.6 444.7 49 452.8 C47.3 460.9 45 474.7 43.8 483.5 C42 497.1 41.6 504.3 41.6 532.5 C41.6 557.8 41.9 568.8 43.3 580 C44.2 587.9 46.2 601.2 47.5 609.5 C48.9 617.7 51.4 630.6 53 638.2 C54.7 645.7 58 659.1 60.5 667.9 C62.9 676.7 67.1 690.6 69.9 698.9 C72.6 707.1 77.8 721.2 81.3 730.1 C84.8 739.1 90.7 753.2 94.4 761.5 C98.1 769.7 106.2 786.4 112.4 798.5 C118.6 810.6 127.6 827.2 132.4 835.5 C137.3 843.7 144.8 856.1 149.3 863 C153.7 869.8 158.4 877.5 159.8 880 C162.2 884.4 162.2 884.6 160.5 888.2 C159.6 890.2 156.8 893.6 154.5 895.7 C152.1 897.7 150.1 899.6 150 899.7 L150 900L149 900 L148.5 900C148.2 900 147.7 900 147.5 900 L147 900L146 900 L145.7 899.5C145.6 899.3 140.7 893.6 134.9 886.8 C129.1 880 120.9 870.2 116.8 865 C112.7 859.7 105.3 849.8 100.3 842.9 C95.4 835.9 87.9 824.9 83.7 818.2 C79.5 811.6 72.9 800.6 69 793.8 C65.1 787 58.4 774.3 54 765.5 C49.7 756.7 43.2 742.4 39.6 733.7 C35.9 725 30.5 710.7 27.5 702 C24.5 693.3 20.2 679.7 18 671.8 C15.8 663.9 12.4 650 10.5 641 C8.6 631.9 6.2 618.4 5.1 611 C4 603.5 2.6 591.8 2 585 C1.4 578.1 0.7 570.5 0.4 568.2 L0 564"/>
 </g>

</svg>